<?xml version="1.0" encoding="UTF-8" standalone="no"?>
<!DOCTYPE svg  PUBLIC '-//W3C//DTD SVG 1.1//EN'  'http://www.w3.org/Graphics/SVG/1.1/DTD/svg11.dtd'>
<svg xmlns="http://www.w3.org/2000/svg" version="1.1">
<defs>
<font id="Soleil" horiz-adv-x="550">
<font-face bbox="-60 -250 921 932" underline-position="-150" font-family="Soleil" underline-thickness="50" panose-1="2 0 5 3 3 0 0 2 0 4" x-height="500" unicode-range="U+0020-00FE" ascent="750" cap-height="700" units-per-em="1000" font-weight="400" descent="-250"/>
<missing-glyph/>
<glyph unicode=" " horiz-adv-x="250" glyph-name="space"/>
<glyph unicode="!" horiz-adv-x="317" d="M212 700v-111l-9 -379h-89l-9 379v111h107zM211 0h-105v116h105v-116z" glyph-name="exclam"/>
<glyph unicode='&quot;' horiz-adv-x="477" d="M170 435h-81l-9 265h99zM388 435h-81l-9 265h99z" glyph-name="quotedbl"/>
<glyph unicode="#" horiz-adv-x="720" d="M65 263h134l24 138h-90v74h102l33 189h81l-33 -189h130l33 189h81l-33 -189h128v-74h-140l-24 -138h96v-74h-108l-32 -189h-81l32 189h-130l-32 -189h-81l32 189h-122v74zM304 401l-24 -138h130l24 138h-130z" glyph-name="numbersign"/>
<glyph unicode="$" d="M30 88l65 61q78 -80 171 -80q58 0 100.5 29t42.5 87q0 22 -9.5 40.5t-20.5 29.5t-36 23.5t-39 18t-47 17.5q-35 13 -54.5 21t-48 24.5t-44 34t-27 45.5t-11.5 63q0 72 50 119.5t129 53.5v95h64v-97q85 -9 164 -65l-57 -67q-59 53 -144 53q-46 0 -81 -23.5t-35 -68.5 q0 -17 8.5 -32t18.5 -24.5t32.5 -20.5t36.5 -16.5t44 -15.5q38 -13 58 -21t52 -26t48.5 -36.5t29.5 -48t13 -66.5q0 -86 -54 -139t-139 -65v-97h-64v94q-116 4 -216 100z" glyph-name="dollar"/>
<glyph unicode="%" horiz-adv-x="850" d="M218 706q67 0 113 -46.5t46 -113.5q0 -66 -46 -112.5t-113 -46.5t-113.5 46.5t-46.5 112.5q0 67 46.5 113.5t113.5 46.5zM219 635q-37 0 -61.5 -25t-24.5 -63t24.5 -63.5t61.5 -25.5q35 0 59 25.5t24 63.5q0 37 -24 62.5t-59 25.5zM633 313q67 0 113 -46.5t46 -113.5 q0 -66 -46 -112.5t-113 -46.5t-113.5 46.5t-46.5 112.5q0 67 46.5 113.5t113.5 46.5zM634 242q-37 0 -61.5 -25t-24.5 -63t24.5 -63.5t61.5 -25.5q35 0 59 25.5t24 63.5q0 37 -24 62.5t-59 25.5zM648 712l55 -40l-497 -684l-55 40z" glyph-name="percent"/>
<glyph unicode="&amp;" horiz-adv-x="680" d="M695 45l-56 -63l-124 110q-77 -104 -220 -104q-92 0 -161.5 65.5t-69.5 151.5q0 62 32 111.5t86 78.5q-67 72 -67 146q0 73 60.5 122t137.5 49q64 0 114 -34t66 -92l-84 -24q-18 66 -100 66q-44 0 -73.5 -25.5t-29.5 -66.5q0 -37 24.5 -68.5t82.5 -82.5l-54 -64l-18 16 q-39 -19 -62.5 -53t-23.5 -78q0 -56 44.5 -95t106.5 -39q96 0 148 74l-81 73l55 63z" glyph-name="ampersand"/>
<glyph unicode="&apos;" horiz-adv-x="259" d="M170 435h-81l-9 265h99z" glyph-name="quotesingle"/>
<glyph unicode="(" horiz-adv-x="345" d="M315 781l38 -65q-209 -137 -209 -412t209 -412l-38 -65q-265 165 -265 477t265 477z" glyph-name="parenleft"/>
<glyph unicode=")" horiz-adv-x="345" d="M-8 716l38 65q265 -165 265 -477t-265 -477l-38 65q209 137 209 412t-209 412z" glyph-name="parenright"/>
<glyph unicode="*" horiz-adv-x="490" d="M420 553l-119 -29l84 -97l-70 -50l-70 113l-70 -113l-70 50l83 97l-118 29l26 82l116 -48l-10 125h86l-9 -125l115 48z" glyph-name="asterisk"/>
<glyph unicode="+" d="M314 561v-211h211v-78h-211v-210h-78v210h-211v78h211v211h78z" glyph-name="plus"/>
<glyph unicode="," horiz-adv-x="250" d="M190 116l-66 -250h-87l51 250h102z" glyph-name="comma"/>
<glyph unicode="-" horiz-adv-x="460" d="M360 238h-260v82h260v-82z" glyph-name="hyphen"/>
<glyph unicode="." horiz-adv-x="250" d="M177 0h-105v116h105v-116z" glyph-name="period"/>
<glyph unicode="/" horiz-adv-x="363" d="M363 735l-292 -788l-71 27l292 788z" glyph-name="slash"/>
<glyph unicode="0" d="M275 676q112 0 173.5 -91.5t61.5 -252.5t-61.5 -252.5t-173.5 -91.5t-173.5 91.5t-61.5 252.5t61.5 252.5t173.5 91.5zM275 590q-67 0 -103 -65t-36 -193t36 -193t103 -65t103 65t36 193t-36 193t-103 65z" glyph-name="zero"/>
<glyph unicode="1" horiz-adv-x="344" d="M249 0h-94v550q-13 -7 -100 -44v88q82 41 133 70h61v-664z" glyph-name="one"/>
<glyph unicode="2" horiz-adv-x="509" d="M480 0h-422v85q166 174 234 274q61 88 61 141q0 42 -33 67t-76 25q-42 0 -73 -29t-32 -74l-93 19q6 73 67 120.5t135 47.5q81 0 141.5 -49.5t60.5 -126.5q0 -82 -71 -183q-74 -104 -195 -233h296v-84z" glyph-name="two"/>
<glyph unicode="3" horiz-adv-x="519" d="M154 292v96q63 2 95 10q40 11 64.5 37.5t24.5 61.5q0 41 -31 68t-80 27q-38 0 -67.5 -19t-41.5 -53l-80 33q20 55 71 89t120 34q92 0 148.5 -48.5t56.5 -129.5q0 -45 -22.5 -83t-60.5 -58q52 -18 84.5 -62.5t32.5 -101.5q0 -94 -64 -149.5t-158 -55.5q-66 0 -124 28.5 t-87 82.5l74 41q40 -68 130 -68q56 0 94.5 29t38.5 84q0 50 -41 82t-100 32q-46 0 -77 -7z" glyph-name="three"/>
<glyph unicode="4" horiz-adv-x="538" d="M418 0h-92v167h-300v101q104 135 295 396h97v-413h99v-84h-99v-167zM126 251h200v281q-78 -114 -200 -281z" glyph-name="four"/>
<glyph unicode="5" horiz-adv-x="499" d="M433 664v-84h-253q-7 -142 -12 -186q41 19 98 19q83 0 143 -59t60 -145q0 -95 -62.5 -158t-158.5 -63q-63 0 -123.5 30.5t-87.5 80.5l75 42q38 -69 124 -69q63 0 100 38.5t37 95.5q0 55 -38 89t-96 34q-62 0 -103 -42l-68 37q11 106 23 340h342z" glyph-name="five"/>
<glyph unicode="6" horiz-adv-x="534" d="M367 701l38 -84q-101 -46 -166 -106.5t-90 -151.5q61 61 150 61q86 0 140.5 -62t54.5 -152q0 -93 -60 -155.5t-151 -62.5q-110 0 -176.5 78t-66.5 187q0 152 92.5 271t234.5 177zM279 336q-45 0 -84 -22.5t-60 -61.5q0 -76 34.5 -128t105.5 -52q56 0 89.5 39t33.5 97 q0 57 -32 92.5t-87 35.5z" glyph-name="six"/>
<glyph unicode="7" horiz-adv-x="452" d="M432 664v-69q-145 -303 -276 -617l-87 39q40 94 87 197t108 230t64 134h-318v86h422z" glyph-name="seven"/>
<glyph unicode="8" horiz-adv-x="562" d="M281 -12q-99 0 -162 56t-63 139q0 111 103 167q-83 49 -83 144q0 77 57 129.5t148 52.5t148 -52.5t57 -129.5q0 -95 -83 -144q103 -56 103 -167q0 -83 -63 -139t-162 -56zM281 303q-53 0 -91 -34t-38 -82q0 -50 37.5 -82.5t91.5 -32.5t91.5 32.5t37.5 82.5q0 48 -38 82 t-91 34zM281 592q-47 0 -79 -29t-32 -73q0 -43 32.5 -73t78.5 -30t78.5 30t32.5 73q0 44 -32 73t-79 29z" glyph-name="eight"/>
<glyph unicode="9" horiz-adv-x="534" d="M167 -37l-38 84q101 46 166 106.5t90 151.5q-61 -61 -150 -61q-86 0 -140.5 62t-54.5 152q0 93 60 155.5t151 62.5q110 0 176.5 -78t66.5 -187q0 -152 -92.5 -271t-234.5 -177zM255 328q45 0 84 22.5t60 61.5q0 76 -34.5 128t-105.5 52q-56 0 -89.5 -39t-33.5 -97 q0 -57 32 -92.5t87 -35.5z" glyph-name="nine"/>
<glyph unicode=":" horiz-adv-x="250" d="M177 384h-105v116h105v-116zM177 0h-105v116h105v-116z" glyph-name="colon"/>
<glyph unicode=";" horiz-adv-x="250" d="M190 116l-66 -250h-87l51 250h102zM192 384h-105v116h105v-116z" glyph-name="semicolon"/>
<glyph unicode="&lt;" d="M24 272v78l501 200v-78l-404 -161l404 -161v-78z" glyph-name="less"/>
<glyph unicode="=" d="M54 428h441v-78h-441v78zM54 272h441v-78h-441v78z" glyph-name="equal"/>
<glyph unicode="&gt;" d="M526 350v-78l-501 -200v78l404 161l-404 161v78z" glyph-name="greater"/>
<glyph unicode="?" horiz-adv-x="541" d="M314 210h-97v166q36 12 59.5 22.5t49 28.5t38.5 43t13 58q0 42 -30 72t-75 30q-49 0 -78 -30t-29 -82v-8h-91v4q0 86 58.5 142t139.5 56q83 0 139.5 -56t56.5 -125q0 -84 -41 -129t-113 -78v-114zM318 0h-105v116h105v-116z" glyph-name="question"/>
<glyph unicode="@" horiz-adv-x="800" d="M546 -103q-71 -36 -151 -36q-142 0 -241 101t-99 243q0 144 99 244.5t241 100.5q156 0 253.5 -91t97.5 -234q0 -89 -39 -150.5t-114 -61.5q-72 0 -97 81q-17 -32 -48.5 -49t-67.5 -17q-71 0 -117 49t-46 123q0 70 45 121.5t120 51.5q57 0 103 -43v32h71v-154 q0 -52 6.5 -81t15.5 -37t23 -8q33 0 50 42t17 102q0 113 -74 180.5t-198 67.5q-111 0 -187 -77.5t-76 -190.5t76 -191t187 -78q63 0 125 30zM485 175v72q-19 27 -45 43t-50 16q-50 0 -75 -31.5t-25 -75.5q0 -43 26.5 -74t71.5 -31q26 0 54.5 22t42.5 59z" glyph-name="at"/>
<glyph unicode="A" horiz-adv-x="653" d="M638 0h-111l-55 149h-298l-54 -149h-105l271 700h84zM323 554l-117 -319h235l-117 319h-1z" glyph-name="A"/>
<glyph unicode="B" horiz-adv-x="611" d="M95 0v700h167q118 0 186 -44q74 -48 74 -145q0 -103 -107 -145q136 -41 136 -167q0 -59 -30.5 -103.5t-83.5 -67.5q-67 -28 -184 -28h-158zM449 198q0 54 -38 86t-108 32h-112v-232h53q102 0 148 21q57 27 57 93zM426 506q0 58 -40 84q-41 26 -147 26h-48v-216h67 q168 0 168 106z" glyph-name="B"/>
<glyph unicode="C" horiz-adv-x="674" d="M642 52q-94 -64 -206 -64q-160 0 -268 100t-108 262q0 154 109.5 258t266.5 104q101 0 188 -54l-45 -74q-68 42 -143 42q-119 0 -196.5 -78t-77.5 -198q0 -126 76 -201t198 -75q82 0 155 49z" glyph-name="C"/>
<glyph unicode="D" horiz-adv-x="720" d="M95 0v700h189q55 0 107.5 -11.5t101.5 -38t86 -65.5t59 -99t22 -133q0 -93 -33 -163.5t-89.5 -110.5t-122.5 -59.5t-141 -19.5h-179zM558 344q0 131 -76.5 200.5t-215.5 69.5h-75v-528h33q161 0 247.5 59.5t86.5 198.5z" glyph-name="D"/>
<glyph unicode="E" horiz-adv-x="580" d="M515 0h-420v700h420v-86h-324v-210h324v-86h-324v-232h324v-86z" glyph-name="E"/>
<glyph unicode="F" horiz-adv-x="495" d="M450 299h-259v-299h-96v700h355v-86h-259v-229h259v-86z" glyph-name="F"/>
<glyph unicode="G" horiz-adv-x="803" d="M627 302h-178v86h274v-266q-50 -64 -125.5 -99t-161.5 -35q-163 0 -269.5 100.5t-106.5 261.5q0 154 109.5 258t266.5 104q79 0 149.5 -33t121.5 -91l-68 -56q-38 43 -91.5 68.5t-111.5 25.5q-119 0 -196.5 -78t-77.5 -198q0 -126 76 -201t198 -75q115 0 191 73v155z" glyph-name="G"/>
<glyph unicode="H" horiz-adv-x="752" d="M657 0h-96v318h-370v-318h-96v700h96v-296h370v296h96v-700z" glyph-name="H"/>
<glyph unicode="I" horiz-adv-x="286" d="M191 0h-96v700h96v-700z" glyph-name="I"/>
<glyph unicode="J" horiz-adv-x="341" d="M251 700v-523q0 -86 -32 -133q-39 -56 -134 -56q-48 0 -101 22l26 78q30 -14 61 -14q50 0 67 24q17 22 17 92v510h96z" glyph-name="J"/>
<glyph unicode="K" horiz-adv-x="621" d="M602 700l-233 -276l247 -424h-112l-200 346l-113 -135v-211h-96v700h96v-357l294 357h117z" glyph-name="K"/>
<glyph unicode="L" horiz-adv-x="500" d="M495 0h-400v700h96v-614h304v-86z" glyph-name="L"/>
<glyph unicode="M" horiz-adv-x="923" d="M732 591l-239 -591h-67l-235 591v-591h-96v700h152l213 -547l216 547h152v-700h-96v591z" glyph-name="M"/>
<glyph unicode="N" horiz-adv-x="755" d="M660 0h-85l-384 522v-522h-96v700h84l385 -522v522h96v-700z" glyph-name="N"/>
<glyph unicode="O" horiz-adv-x="840" d="M678 350q0 117 -73.5 196.5t-184.5 79.5t-184.5 -79.5t-73.5 -196.5t73.5 -196.5t184.5 -79.5t184.5 79.5t73.5 196.5zM780 350q0 -151 -104 -256.5t-256 -105.5t-256 105.5t-104 256.5t104 256.5t256 105.5t256 -105.5t104 -256.5z" glyph-name="O"/>
<glyph unicode="P" horiz-adv-x="581" d="M551 491q0 -56 -22 -98t-59 -66t-79 -35.5t-87 -11.5h-113v-280h-96v700h209q45 0 87 -11.5t78.5 -35t59 -65.5t22.5 -97zM449 488q0 58 -41 92t-109 34h-108v-248h88q170 0 170 122z" glyph-name="P"/>
<glyph unicode="Q" horiz-adv-x="840" d="M780 350q0 -155 -107 -259l95 -94l-61 -61l-103 101q-84 -49 -184 -49q-152 0 -256 105.5t-104 256.5t104 256.5t256 105.5t256 -105.5t104 -256.5zM678 350q0 117 -73.5 196.5t-184.5 79.5t-184.5 -79.5t-73.5 -196.5t73.5 -196.5t184.5 -79.5q66 0 119 29l-98 98l61 61 l105 -105q71 77 71 193z" glyph-name="Q"/>
<glyph unicode="R" horiz-adv-x="613" d="M593 0h-120l-210 296h-72v-296h-96v700h208q58 0 110 -19t90.5 -66.5t38.5 -115.5q0 -83 -49.5 -132.5t-121.5 -64.5zM440 496q0 53 -39 85.5t-103 32.5h-107v-232h87q74 0 118 28.5t44 85.5z" glyph-name="R"/>
<glyph unicode="S" horiz-adv-x="609" d="M458 570q-26 24 -66.5 40t-80.5 16q-57 0 -91 -25.5t-34 -71.5q0 -18 9 -33t19 -24.5t34 -20.5t38 -16.5t46 -16.5q47 -17 76.5 -30.5t65 -38.5t53 -60.5t17.5 -82.5q0 -56 -23 -100t-60 -68.5t-79 -37t-84 -12.5q-147 0 -253 105l68 64q48 -47 90 -65t96 -18 q60 0 101.5 30.5t41.5 90.5q0 28 -11.5 48.5t-37.5 36.5t-47 24.5t-60 22.5q-42 15 -72 29t-61 36.5t-47.5 54.5t-16.5 72q0 94 60 143.5t151 49.5q122 0 217 -72z" glyph-name="S"/>
<glyph unicode="T" horiz-adv-x="488" d="M468 614h-176v-614h-96v614h-176v86h448v-86z" glyph-name="T"/>
<glyph unicode="U" horiz-adv-x="722" d="M632 700v-371q0 -169 -66 -255t-207 -86q-269 0 -269 341v371h96v-396q0 -114 46 -172t129 -58t129 58t46 172v396h96z" glyph-name="U"/>
<glyph unicode="V" horiz-adv-x="633" d="M628 700l-271 -700h-84l-268 700h111l203 -554h1l203 554h105z" glyph-name="V"/>
<glyph unicode="W" horiz-adv-x="886" d="M490 700l140 -528h2l147 528h102l-200 -700h-96l-140 533h-2l-152 -533h-94l-192 700h106l140 -528h2l147 528h90z" glyph-name="W"/>
<glyph unicode="X" horiz-adv-x="651" d="M642 700l-254 -346l258 -354h-121l-203 277l-196 -277h-121l257 356l-249 344h123l194 -269l193 269h119z" glyph-name="X"/>
<glyph unicode="Y" horiz-adv-x="555" d="M324 0h-96v304l-223 396h119l156 -294h3l155 294h112l-226 -401v-299z" glyph-name="Y"/>
<glyph unicode="Z" horiz-adv-x="547" d="M502 648l-329 -562h354v-86h-487v51l331 563h-323v86h454v-52z" glyph-name="Z"/>
<glyph unicode="[" horiz-adv-x="311" d="M301 -170h-211v920h211v-77h-129v-766h129v-77z" glyph-name="bracketleft"/>
<glyph unicode="\" horiz-adv-x="363" d="M363 -26l-71 -27l-292 788l71 27z" glyph-name="backslash"/>
<glyph unicode="]" horiz-adv-x="311" d="M221 -170h-211v77h129v766h-129v77h211v-920z" glyph-name="bracketright"/>
<glyph unicode="^" d="M474 350h-78l-121 254l-121 -254h-78l151 331h96z" glyph-name="asciicircum"/>
<glyph unicode="_" d="M550 -235h-550v63h550v-63z" glyph-name="underscore"/>
<glyph unicode="`" horiz-adv-x="360" d="M191 566l-134 160l66 51l123 -169z" glyph-name="grave"/>
<glyph unicode="a" horiz-adv-x="546" d="M468 0h-87v53q-58 -65 -150 -65q-75 0 -126 38t-51 114q0 60 34 99t81.5 53t107.5 14q47 0 100 -11v18q0 120 -118 120q-79 0 -159 -44l-27 76q98 47 197 47q105 0 151.5 -53.5t46.5 -154.5v-304zM377 124v103q-46 10 -90 10q-144 0 -144 -90q0 -43 27.5 -63t71.5 -20 q64 0 135 60z" glyph-name="a"/>
<glyph unicode="b" horiz-adv-x="626" d="M84 750h91v-317q26 38 69 58.5t90 20.5q107 0 178.5 -76t71.5 -187q0 -104 -71 -182.5t-181 -78.5q-93 0 -157 66v-54h-91v750zM175 333v-185q25 -36 65 -56t80 -20q81 0 126 54t45 125q0 73 -47 125t-122 52q-44 0 -86.5 -25.5t-60.5 -69.5z" glyph-name="b"/>
<glyph unicode="c" horiz-adv-x="475" d="M406 107l45 -70q-60 -49 -153 -49q-109 0 -182.5 73t-73.5 189q0 110 76 186t185 76q77 0 141 -43l-43 -75q-45 34 -102 34q-68 0 -116 -52t-48 -126q0 -79 48.5 -128.5t116.5 -49.5q59 0 106 35z" glyph-name="c"/>
<glyph unicode="d" horiz-adv-x="626" d="M292 -12q-107 0 -178.5 76t-71.5 186q0 104 70.5 183t181.5 79q92 0 157 -67v305h91v-750h-91v67q-26 -38 -69 -58.5t-90 -20.5zM304 72q43 0 85.5 25.5t61.5 68.5v186q-25 36 -65 56t-80 20q-82 0 -126.5 -54t-44.5 -126t47 -124t122 -52z" glyph-name="d"/>
<glyph unicode="e" horiz-adv-x="560" d="M514 227h-381q5 -68 48.5 -114.5t112.5 -46.5q106 0 149 81l66 -42q-73 -117 -219 -117q-116 0 -182 74t-66 188q0 111 71.5 186.5t176.5 75.5q99 0 163.5 -66t64.5 -167q0 -26 -4 -52zM291 434q-58 0 -97.5 -37.5t-53.5 -96.5h284q-3 55 -40.5 94.5t-92.5 39.5z" glyph-name="e"/>
<glyph unicode="f" horiz-adv-x="337" d="M366 740l-26 -76q-30 14 -62 14q-37 0 -58 -16q-26 -21 -26 -99v-63h135v-80h-135v-420h-91v420h-57v80h57v72q0 84 31 131q40 59 133 59q46 0 99 -22z" glyph-name="f"/>
<glyph unicode="g" horiz-adv-x="620" d="M542 500v-472q0 -80 -26 -131q-62 -119 -226 -119q-131 0 -221 66l35 78q36 -26 87 -43t97 -17q71 0 117 36.5t46 111.5v69q-26 -38 -69.5 -58.5t-90.5 -20.5q-106 0 -177.5 74t-71.5 182q0 103 70.5 179.5t181.5 76.5q92 0 157 -67v55h91zM451 177v175q-25 36 -65 56 t-80 20q-82 0 -126.5 -52t-44.5 -122t47 -120t121 -50q43 0 86 25t62 68z" glyph-name="g"/>
<glyph unicode="h" horiz-adv-x="606" d="M175 750v-332q59 94 163 94q98 0 145 -63q45 -61 45 -189v-260h-91v250q0 99 -26 138q-27 40 -87 40q-42 0 -81.5 -26.5t-67.5 -69.5v-332h-91v750h91z" glyph-name="h"/>
<glyph unicode="i" horiz-adv-x="259" d="M175 0h-91v500h91v-500zM175 598h-91v102h91v-102z" glyph-name="i"/>
<glyph unicode="j" horiz-adv-x="267" d="M183 598h-91v102h91v-102zM183 500v-544q0 -59 -14 -95q-32 -83 -133 -83q-56 0 -96 22l26 74q26 -14 56 -14q44 0 57 28t13 86v526h91z" glyph-name="j"/>
<glyph unicode="k" horiz-adv-x="514" d="M508 0h-111l-143 224l-79 -92v-132h-91v750h91v-500l2 -1l202 251h112l-175 -204z" glyph-name="k"/>
<glyph unicode="l" horiz-adv-x="259" d="M175 750v-750h-91v750h91z" glyph-name="l"/>
<glyph unicode="m" horiz-adv-x="919" d="M841 0h-91v250q0 100 -24 138q-27 40 -86 40q-35 0 -72.5 -23t-65.5 -60q6 -37 6 -85v-260h-91v250q0 105 -27 143q-25 35 -77 35q-36 0 -73.5 -27t-64.5 -65v-336h-91v500h91v-76q28 40 71 64t86 24q94 0 139 -69q5 -7 12 -23q65 92 174 92q93 0 138 -59q46 -60 46 -193 v-260z" glyph-name="m"/>
<glyph unicode="n" horiz-adv-x="606" d="M84 500h91v-82q59 94 163 94q98 0 145 -63q45 -61 45 -189v-260h-91v250q0 99 -26 138q-27 40 -87 40q-42 0 -81.5 -26.5t-67.5 -69.5v-332h-91v500z" glyph-name="n"/>
<glyph unicode="o" horiz-adv-x="594" d="M297 512q109 0 182 -76t73 -186t-73 -186t-182 -76t-182 76t-73 186t73 186t182 76zM459 250q0 74 -46 126t-116 52t-116 -52t-46 -126t46 -126t116 -52t116 52t46 126z" glyph-name="o"/>
<glyph unicode="p" horiz-adv-x="626" d="M84 500h91v-67q26 38 69 58.5t90 20.5q107 0 178.5 -76t71.5 -187q0 -104 -71 -182.5t-181 -78.5q-93 0 -157 66v-304h-91v750zM175 333v-185q25 -36 65 -56t80 -20q81 0 126 54t45 125q0 73 -47 125t-122 52q-44 0 -86.5 -25.5t-60.5 -69.5z" glyph-name="p"/>
<glyph unicode="q" horiz-adv-x="626" d="M542 500v-750h-91v317q-26 -38 -69 -58.5t-90 -20.5q-107 0 -178.5 76t-71.5 186q0 104 70.5 183t181.5 79q92 0 157 -67v55h91zM451 166v186q-25 36 -65 56t-80 20q-82 0 -126.5 -54t-44.5 -126t47 -124t122 -52q43 0 85.5 25.5t61.5 68.5z" glyph-name="q"/>
<glyph unicode="r" horiz-adv-x="357" d="M175 500v-83q53 95 129 95q26 0 54 -6l-17 -97q-21 10 -47 10q-71 0 -119 -84v-335h-91v500h91z" glyph-name="r"/>
<glyph unicode="s" horiz-adv-x="451" d="M382 457l-54 -58q-43 37 -99 37q-34 0 -54.5 -18t-20.5 -48q0 -18 16 -33t32 -22.5t48 -20.5q30 -12 51 -22.5t45.5 -28t37 -42.5t12.5 -56q0 -79 -52 -118t-129 -39q-112 0 -172 78l64 51q50 -53 109 -53q39 0 64.5 20t25.5 57q0 18 -15.5 33.5t-31.5 23t-49 20.5 q-35 14 -52 22t-42.5 25.5t-37 41.5t-11.5 56q0 72 47 110.5t114 38.5q93 0 154 -55z" glyph-name="s"/>
<glyph unicode="t" horiz-adv-x="346" d="M320 420h-140v-226q0 -24 1 -39q2 -42 18 -63t52 -21q28 0 56 14l25 -73q-42 -22 -93 -22q-99 0 -134 78q-16 37 -16 104v248h-67v80h67v120h91v-120h140v-80z" glyph-name="t"/>
<glyph unicode="u" horiz-adv-x="606" d="M431 0v82q-59 -94 -163 -94q-98 0 -145 63q-45 61 -45 189v260h91v-250q0 -99 26 -138q27 -40 87 -40q42 0 81.5 26.5t67.5 69.5v332h91v-500h-91z" glyph-name="u"/>
<glyph unicode="v" horiz-adv-x="479" d="M376 500h97l-194 -500h-82l-189 500h101l133 -387h2z" glyph-name="v"/>
<glyph unicode="w" horiz-adv-x="733" d="M419 500l101 -385h3l102 385h92l-144 -500h-98l-107 389h-2l-110 -389h-102l-138 500h98l94 -385h2l111 385h98z" glyph-name="w"/>
<glyph unicode="x" horiz-adv-x="490" d="M480 500l-177 -243l181 -257h-116l-125 186l-125 -186h-112l184 249l-174 251h115l120 -178l119 178h110z" glyph-name="x"/>
<glyph unicode="y" horiz-adv-x="477" d="M6 500h101l130 -379h2l133 379h99l-281 -725l-80 31l79 209z" glyph-name="y"/>
<glyph unicode="z" horiz-adv-x="454" d="M59 41l221 379h-232v80h353v-40l-221 -380h238v-80h-359v41z" glyph-name="z"/>
<glyph unicode="{" horiz-adv-x="311" d="M9 260l2 82q79 18 79 146v75q0 88 50 143.5t131 55.5q19 0 29 -1v-79q-18 2 -25 2q-54 0 -78.5 -41t-24.5 -107v-75q0 -104 -67 -160q67 -57 67 -160v-97q0 -66 24.5 -107t78.5 -41q9 0 25 2v-79q-10 -1 -29 -1q-81 0 -131 55.5t-50 143.5v109q0 53 -20.5 89.5 t-60.5 44.5z" glyph-name="braceleft"/>
<glyph unicode="|" horiz-adv-x="318" d="M198 -170h-78v1028h78v-1028z" glyph-name="bar"/>
<glyph unicode="}" horiz-adv-x="311" d="M299 342l2 -82q-40 -8 -60.5 -44.5t-20.5 -89.5v-109q0 -88 -50 -143.5t-131 -55.5q-19 0 -29 1v79q16 -2 25 -2q54 0 78.5 41t24.5 107v97q0 103 67 160q-67 56 -67 160v75q0 66 -24.5 107t-78.5 41q-7 0 -25 -2v79q10 1 29 1q81 0 131 -55.5t50 -143.5v-75 q0 -128 79 -146z" glyph-name="braceright"/>
<glyph unicode="~" d="M441 389l76 8q2 -16 2 -32q0 -56 -38 -89t-98 -33q-43 0 -84 22.5t-75.5 45t-60.5 22.5q-21 0 -38 -13t-17 -33q0 -11 2 -17l-76 -8q-2 16 -2 32q0 56 38 89t98 33q34 0 68 -14t56 -31t48 -31t48 -14q20 0 37.5 13.5t17.5 32.5q0 11 -2 17z" glyph-name="asciitilde"/>
<glyph unicode=" " horiz-adv-x="250" glyph-name="uni00A0"/>
<glyph unicode="¡" horiz-adv-x="317" d="M104 -200v111l10 379h89l10 -379v-111h-109zM106 500h105v-116h-105v116z" glyph-name="exclamdown"/>
<glyph unicode="¢" d="M440 173l45 -70q-53 -42 -130 -48v-87h-64v89q-94 14 -154.5 84t-60.5 175q0 97 60.5 169t154.5 89v90h64v-87q67 -4 123 -42l-43 -75q-45 34 -102 34q-68 0 -116 -52t-48 -126q0 -79 48.5 -128.5t116.5 -49.5q59 0 106 35z" glyph-name="cent"/>
<glyph unicode="£" d="M486 0h-406v86h57v230h-57v84h57v54q0 97 57 159.5t145 62.5q87 0 147 -37l-39 -78q-35 31 -104 31q-115 0 -115 -165v-27h135v-84h-135v-230h258v-86z" glyph-name="sterling"/>
<glyph unicode="¤" d="M59 325q0 67 40 125l-52 52l51 51l52 -52q56 40 125 40q67 0 125 -40l52 52l51 -51l-52 -52q40 -58 40 -125q0 -69 -40 -125l52 -52l-51 -51l-52 52q-58 -40 -125 -40q-69 0 -125 40l-52 -52l-51 51l52 52q-40 56 -40 125zM137 325q0 -57 40.5 -97.5t97.5 -40.5 t97.5 40.5t40.5 97.5t-40.5 97.5t-97.5 40.5t-97.5 -40.5t-40.5 -97.5z" glyph-name="currency"/>
<glyph unicode="¥" d="M55 256v74h149l-187 334h108l152 -279h2l147 279h106l-190 -334h148v-74h-170v-64h170v-74h-172v-118h-91v118h-172v74h170v64h-170z" glyph-name="yen"/>
<glyph unicode="¦" horiz-adv-x="318" d="M198 -200h-78v375h78v-375zM198 375h-78v375h78v-375z" glyph-name="brokenbar"/>
<glyph unicode="§" d="M446 662l-49 -63q-61 37 -132 37q-40 0 -71.5 -18.5t-31.5 -54.5q0 -12 4.5 -22.5t15.5 -19t19.5 -15t28.5 -14t30.5 -11.5t35.5 -12t35 -11q37 -12 62.5 -24t52 -31t40 -47t13.5 -63q0 -43 -27 -80t-70 -58q78 -42 78 -121q0 -87 -60 -130.5t-155 -43.5q-133 0 -214 75 l54 64q70 -63 160 -63q51 0 86.5 23.5t35.5 64.5q0 30 -27 48.5t-79 34.5q-9 3 -37 11t-40.5 12t-37.5 13.5t-37 17t-29.5 20.5t-26 26.5t-15 32.5t-6.5 41q0 51 26.5 89.5t72.5 57.5q-76 45 -76 123t56.5 119.5t137.5 41.5q102 0 177 -50zM326 186q33 13 56.5 39t23.5 57 q0 14 -4.5 25.5t-16 21.5t-21 16.5t-29.5 14.5t-31.5 12t-37 12t-36.5 11q-38 -12 -61.5 -38.5t-23.5 -56.5q0 -15 5 -27t16.5 -22t21.5 -17t30.5 -14.5t32.5 -11.5t38 -11t37 -11z" glyph-name="section"/>
<glyph unicode="¨" horiz-adv-x="360" d="M125 598h-93v102h93v-102zM328 598h-93v102h93v-102z" glyph-name="dieresis"/>
<glyph unicode="©" horiz-adv-x="799" d="M55 333q0 143 101 244t244 101t244 -101t101 -244t-101 -244t-244 -101t-244 101t-101 244zM131 333q0 -112 78.5 -191.5t190.5 -79.5t190.5 79.5t78.5 191.5t-78.5 191.5t-190.5 79.5t-190.5 -79.5t-78.5 -191.5zM293 333q0 -56 31.5 -87.5t82.5 -31.5q39 0 73 25 l38 -58q-53 -35 -108 -35q-82 0 -138.5 51.5t-56.5 135.5q0 79 56.5 132.5t138.5 53.5q54 0 101 -30l-35 -58q-38 20 -69 20q-50 0 -82 -33t-32 -85z" glyph-name="copyright"/>
<glyph unicode="ª" horiz-adv-x="381" d="M254 587v10q0 76 -75 76q-52 0 -106 -29l-21 57q72 33 138 33q136 0 136 -143v-205h-65l-4 34q-35 -42 -97 -42q-51 0 -86.5 27.5t-35.5 77.5q0 59 43.5 85.5t107.5 26.5q29 0 65 -8zM254 538q-31 7 -55 7q-90 0 -90 -58q0 -26 17.5 -39t45.5 -13q39 0 82 36v67z" glyph-name="ordfeminine"/>
<glyph unicode="«" horiz-adv-x="530" d="M281 332l145 150l44 -88l-127 -122l127 -121l-44 -88l-145 150v119zM60 332l145 150l44 -88l-127 -122l127 -121l-44 -88l-145 150v119z" glyph-name="guillemotleft"/>
<glyph unicode="¬" d="M24 420h501v-290h-78v212h-423v78z" glyph-name="logicalnot"/>
<glyph unicode="­" horiz-adv-x="460" d="M360 238h-260v82h260v-82z" glyph-name="uni00AD"/>
<glyph unicode="®" horiz-adv-x="575" d="M55 484q0 97 68 165t164 68q97 0 165 -68t68 -165q0 -96 -68 -164t-165 -68q-96 0 -164 68t-68 164zM115 484q0 -71 50.5 -122.5t121.5 -51.5q72 0 122.5 51t50.5 123q0 73 -50.5 124t-122.5 51q-71 0 -121.5 -51t-50.5 -124zM399 363h-66l-65 91h-13v-91h-54v241h59 q60 0 87 -17.5t27 -55.5q0 -51 -48 -69zM318 529q0 19 -12.5 25t-50.5 6v-62q33 0 48 6t15 25z" glyph-name="registered"/>
<glyph unicode="¯" horiz-adv-x="360" d="M328 608h-296v70h296v-70z" glyph-name="macron"/>
<glyph unicode="°" horiz-adv-x="462" d="M148 543q0 -35 24 -59.5t58 -24.5t59 24.5t25 59.5t-25 60.5t-59 25.5t-58 -25.5t-24 -60.5zM80 543q0 61 44 105.5t106 44.5q61 0 106.5 -44.5t45.5 -105.5q0 -62 -45.5 -105t-106.5 -43q-62 0 -106 43t-44 105z" glyph-name="degree"/>
<glyph unicode="±" d="M25 78h500v-78h-500v78zM314 631v-211h211v-78h-211v-210h-78v210h-211v78h211v211h78z" glyph-name="plusminus"/>
<glyph unicode="²" horiz-adv-x="319" d="M38 425q79 82 137 164q32 44 32 77q0 21 -15.5 34t-37.5 13q-23 0 -38 -16t-15 -42l-72 12q4 48 41.5 78t85.5 30q50 0 87.5 -30t37.5 -78q0 -52 -41 -111q-36 -51 -106 -127h165v-62h-261v58z" glyph-name="twosuperior"/>
<glyph unicode="³" horiz-adv-x="319" d="M98 540v64q37 2 51 6q21 5 34 19t13 33q0 22 -16 36.5t-41 14.5q-46 0 -57 -42l-60 26q12 36 43.5 57t73.5 21q55 0 92.5 -29.5t37.5 -77.5q0 -26 -13.5 -49.5t-35.5 -35.5q30 -11 49 -37.5t19 -60.5q0 -57 -40 -90t-99 -33q-42 0 -78.5 19.5t-53.5 56.5l59 29 q22 -43 72 -43q27 0 46.5 15t19.5 43q0 29 -22 45.5t-56 16.5q-23 0 -38 -4z" glyph-name="threesuperior"/>
<glyph unicode="´" horiz-adv-x="360" d="M303 726l-134 -160l-55 42l123 169z" glyph-name="acute"/>
<glyph unicode="µ" d="M406 0v82q-59 -94 -163 -94q-58 0 -99 22v-260h-91v750h91v-250q0 -31 1 -50.5t7.5 -46.5t17.5 -42.5t33.5 -27t53.5 -11.5q42 0 81.5 26.5t67.5 69.5v332h91v-500h-91z" glyph-name="mu"/>
<glyph unicode="¶" d="M498 -175h-96v875h96v-875zM345 -175h-96v457q-87 10 -147 62t-60 147q0 55 22.5 97t59 65.5t78.5 35t87 11.5h56v-875zM138 491q0 -54 32 -84.5t79 -35.5v241q-47 -6 -79 -36.5t-32 -84.5z" glyph-name="paragraph"/>
<glyph unicode="·" horiz-adv-x="250" d="M177 259h-105v116h105v-116z" glyph-name="periodcentered"/>
<glyph unicode="¸" horiz-adv-x="360" d="M174 -1l-24 -64l1 -1q22 16 48 16q35 0 61 -26.5t26 -66.5q0 -41 -31.5 -71.5t-77.5 -30.5q-70 0 -103 59l57 28q12 -32 46 -32q19 0 31 13t12 31q0 20 -12.5 33.5t-32.5 13.5q-29 0 -39 -24l-61 32l42 101z" glyph-name="cedilla"/>
<glyph unicode="¹" horiz-adv-x="216" d="M162 367h-72v319q-10 -5 -58 -26v66q42 23 83 44h47v-403z" glyph-name="onesuperior"/>
<glyph unicode="º" horiz-adv-x="410" d="M205 734q75 0 125 -51.5t50 -126.5t-50 -126.5t-125 -51.5t-125 51.5t-50 126.5t50 126.5t125 51.5zM306 556q0 48 -28.5 80.5t-72.5 32.5t-72.5 -32.5t-28.5 -80.5t28.5 -80.5t72.5 -32.5t72.5 32.5t28.5 80.5z" glyph-name="ordmasculine"/>
<glyph unicode="»" horiz-adv-x="530" d="M104 471l145 -140v-119l-145 -140l-44 78l127 121l-127 122zM325 471l145 -140v-119l-145 -140l-44 78l127 121l-127 122z" glyph-name="guillemotright"/>
<glyph unicode="¼" horiz-adv-x="745" d="M577 712l55 -40l-497 -684l-55 40zM224 338h-69v283q-25 -12 -53 -23v62q2 1 32 16.5t45 23.5h45v-362zM389 150q78 102 154 209h70v-213h52v-57h-52v-89h-68v89h-156v61zM545 146v122q-79 -116 -83 -122h83z" glyph-name="onequarter"/>
<glyph unicode="½" horiz-adv-x="770" d="M577 712l55 -40l-497 -684l-55 40zM224 338h-69v283q-25 -12 -53 -23v62q2 1 32 16.5t45 23.5h45v-362zM450 53q72 74 125 147q28 38 28 67q0 18 -13 29t-33 11t-33 -14t-13 -38l-69 12q3 44 37.5 71.5t80.5 27.5t80.5 -27.5t34.5 -71.5q0 -43 -39 -99q-32 -46 -93 -110 h147v-58h-240v53z" glyph-name="onehalf"/>
<glyph unicode="¾" horiz-adv-x="812" d="M644 712l55 -40l-497 -684l-55 40zM157 494v60q30 0 45 4q41 11 41 47q0 19 -14 31t-37 12q-39 0 -48 -38l-59 26q12 33 41.5 52t66.5 19q50 0 85 -27t35 -70q0 -23 -12.5 -44t-32.5 -32q28 -10 45 -34t17 -55q0 -50 -37 -80t-91 -30q-39 0 -72 18t-50 53l58 27 q18 -40 64 -40q24 0 40.5 13.5t16.5 37.5q0 25 -19.5 39t-50.5 14q-20 0 -32 -3zM456 150q78 102 154 209h70v-213h52v-57h-52v-89h-68v89h-156v61zM612 146v122q-79 -116 -83 -122h83z" glyph-name="threequarters"/>
<glyph unicode="¿" horiz-adv-x="541" d="M227 291h97v-166q-36 -12 -59.5 -22.5t-49 -28.5t-38.5 -43t-13 -58q0 -42 30 -72t75 -30q49 0 78 30t29 82v8h91v-4q0 -86 -58.5 -142t-139.5 -56q-83 0 -139.5 56t-56.5 125q0 84 41 129t113 78v114zM223 501h105v-116h-105v116z" glyph-name="questiondown"/>
<glyph unicode="À" horiz-adv-x="653" d="M638 0h-111l-55 149h-298l-54 -149h-105l271 700h84zM323 554l-117 -319h235l-117 319h-1zM351 740l-175 126l52 66l165 -138z" glyph-name="Agrave"/>
<glyph unicode="Á" horiz-adv-x="653" d="M638 0h-111l-55 149h-298l-54 -149h-105l271 700h84zM323 554l-117 -319h235l-117 319h-1zM480 866l-175 -126l-42 54l165 138z" glyph-name="Aacute"/>
<glyph unicode="Â" horiz-adv-x="653" d="M638 0h-111l-55 149h-298l-54 -149h-105l271 700h84zM323 554l-117 -319h235l-117 319h-1zM280 922h95l107 -134l-54 -42l-102 116l-101 -116l-55 42z" glyph-name="Acircumflex"/>
<glyph unicode="Ã" horiz-adv-x="653" d="M638 0h-111l-55 149h-298l-54 -149h-105l271 700h84zM323 554l-117 -319h235l-117 319h-1zM448 866l65 7q2 -12 2 -27q0 -43 -27.5 -69t-70.5 -26q-30 0 -57.5 16t-50 32t-40.5 16q-31 0 -33 -30q0 -7 1 -10l-65 -7q-2 12 -2 27q0 43 27.5 69t70.5 26q37 0 83 -32t65 -32 q31 0 33 30q0 7 -1 10z" glyph-name="Atilde"/>
<glyph unicode="Ä" horiz-adv-x="653" d="M638 0h-111l-55 149h-298l-54 -149h-105l271 700h84zM323 554l-117 -319h235l-117 319h-1zM243 764h-102v111h102v-111zM513 764h-102v111h102v-111z" glyph-name="Adieresis"/>
<glyph unicode="Å" horiz-adv-x="653" d="M638 0h-111l-55 149h-298l-54 -149h-105l271 700h84zM323 554l-117 -319h235l-117 319h-1zM236 819q0 38 27.5 65.5t65.5 27.5t65.5 -27.5t27.5 -65.5t-27.5 -65.5t-65.5 -27.5t-65.5 27.5t-27.5 65.5zM285 819q0 -18 13 -31t31 -13t31 13t13 31t-13 31t-31 13t-31 -13 t-13 -31z" glyph-name="Aring"/>
<glyph unicode="Æ" horiz-adv-x="986" d="M921 0h-420v149h-286l-105 -149h-120l512 700h419v-86h-324v-210h324v-86h-324v-232h324v-86zM275 235h226v321z" glyph-name="AE"/>
<glyph unicode="Ç" horiz-adv-x="674" d="M624 658l-45 -74q-68 42 -143 42q-119 0 -196.5 -78t-77.5 -198q0 -126 76 -201t198 -75q82 0 155 49l51 -71q-94 -64 -206 -64q-33 0 -58 4l-24 -57l2 -1q18 16 48 16q39 0 63 -27t24 -66q0 -41 -31.5 -71.5t-77.5 -30.5q-70 0 -103 59l57 28q12 -32 46 -32q19 0 31 13 t12 31q0 19 -11.5 33t-31.5 14q-28 0 -41 -24l-62 33l43 93q-118 32 -190 124t-72 223q0 154 109.5 258t266.5 104q101 0 188 -54z" glyph-name="Ccedilla"/>
<glyph unicode="È" horiz-adv-x="580" d="M515 0h-420v700h420v-86h-324v-210h324v-86h-324v-232h324v-86zM344 740l-175 126l52 66l165 -138z" glyph-name="Egrave"/>
<glyph unicode="É" horiz-adv-x="580" d="M515 0h-420v700h420v-86h-324v-210h324v-86h-324v-232h324v-86zM447 866l-175 -126l-42 54l165 138z" glyph-name="Eacute"/>
<glyph unicode="Ê" horiz-adv-x="580" d="M515 0h-420v700h420v-86h-324v-210h324v-86h-324v-232h324v-86zM264 922h95l107 -134l-54 -42l-102 116l-101 -116l-55 42z" glyph-name="Ecircumflex"/>
<glyph unicode="Ë" horiz-adv-x="580" d="M248 764h-100v111h100v-111zM478 764h-100v111h100v-111zM515 0h-420v700h420v-86h-324v-210h324v-86h-324v-232h324v-86z" glyph-name="Edieresis"/>
<glyph unicode="Ì" horiz-adv-x="286" d="M191 0h-96v700h96v-700zM168 740l-175 126l52 66l165 -138z" glyph-name="Igrave"/>
<glyph unicode="Í" horiz-adv-x="286" d="M191 0h-96v700h96v-700zM297 866l-175 -126l-42 54l165 138z" glyph-name="Iacute"/>
<glyph unicode="Î" horiz-adv-x="286" d="M191 0h-96v700h96v-700zM97 922h95l107 -134l-54 -42l-102 116l-101 -116l-55 42z" glyph-name="Icircumflex"/>
<glyph unicode="Ï" horiz-adv-x="286" d="M80 764h-102v111h102v-111zM308 764h-102v111h102v-111zM191 0h-96v700h96v-700z" glyph-name="Idieresis"/>
<glyph unicode="Ð" horiz-adv-x="720" d="M660 353q0 -93 -33 -163.5t-89.5 -110.5t-122.5 -59.5t-141 -19.5h-179v321h-70v79h70v300h189q55 0 107.5 -11.5t101.5 -38t86 -65.5t59 -99t22 -133zM558 344q0 131 -76.5 200.5t-215.5 69.5h-75v-214h120v-79h-120v-235h33q161 0 247.5 59.5t86.5 198.5z" glyph-name="Eth"/>
<glyph unicode="Ñ" horiz-adv-x="755" d="M660 0h-85l-384 522v-522h-96v700h84l385 -522v522h96v-700zM491 866l65 7q2 -12 2 -27q0 -43 -27.5 -69t-70.5 -26q-30 0 -57.5 16t-50 32t-40.5 16q-31 0 -33 -30q0 -7 1 -10l-65 -7q-2 12 -2 27q0 43 27.5 69t70.5 26q37 0 83 -32t65 -32q31 0 33 30q0 7 -1 10z" glyph-name="Ntilde"/>
<glyph unicode="Ò" horiz-adv-x="840" d="M678 350q0 117 -73.5 196.5t-184.5 79.5t-184.5 -79.5t-73.5 -196.5t73.5 -196.5t184.5 -79.5t184.5 79.5t73.5 196.5zM780 350q0 -151 -104 -256.5t-256 -105.5t-256 105.5t-104 256.5t104 256.5t256 105.5t256 -105.5t104 -256.5zM445 740l-175 126l52 66l165 -138z " glyph-name="Ograve"/>
<glyph unicode="Ó" horiz-adv-x="840" d="M678 350q0 117 -73.5 196.5t-184.5 79.5t-184.5 -79.5t-73.5 -196.5t73.5 -196.5t184.5 -79.5t184.5 79.5t73.5 196.5zM780 350q0 -151 -104 -256.5t-256 -105.5t-256 105.5t-104 256.5t104 256.5t256 105.5t256 -105.5t104 -256.5zM574 866l-175 -126l-42 54l165 138z " glyph-name="Oacute"/>
<glyph unicode="Ô" horiz-adv-x="840" d="M678 350q0 117 -73.5 196.5t-184.5 79.5t-184.5 -79.5t-73.5 -196.5t73.5 -196.5t184.5 -79.5t184.5 79.5t73.5 196.5zM780 350q0 -151 -104 -256.5t-256 -105.5t-256 105.5t-104 256.5t104 256.5t256 105.5t256 -105.5t104 -256.5zM372 922h95l107 -134l-54 -42 l-102 116l-101 -116l-55 42z" glyph-name="Ocircumflex"/>
<glyph unicode="Õ" horiz-adv-x="840" d="M678 350q0 117 -73.5 196.5t-184.5 79.5t-184.5 -79.5t-73.5 -196.5t73.5 -196.5t184.5 -79.5t184.5 79.5t73.5 196.5zM780 350q0 -151 -104 -256.5t-256 -105.5t-256 105.5t-104 256.5t104 256.5t256 105.5t256 -105.5t104 -256.5zM546 866l65 7q2 -12 2 -27 q0 -43 -27.5 -69t-70.5 -26q-30 0 -57.5 16t-50 32t-40.5 16q-31 0 -33 -30q0 -7 1 -10l-65 -7q-2 12 -2 27q0 43 27.5 69t70.5 26q37 0 83 -32t65 -32q31 0 33 30q0 7 -1 10z" glyph-name="Otilde"/>
<glyph unicode="Ö" horiz-adv-x="840" d="M678 350q0 117 -73.5 196.5t-184.5 79.5t-184.5 -79.5t-73.5 -196.5t73.5 -196.5t184.5 -79.5t184.5 79.5t73.5 196.5zM780 350q0 -151 -104 -256.5t-256 -105.5t-256 105.5t-104 256.5t104 256.5t256 105.5t256 -105.5t104 -256.5zM336 764h-102v111h102v-111zM606 764 h-102v111h102v-111z" glyph-name="Odieresis"/>
<glyph unicode="×" d="M126 516l149 -150l150 150l55 -56l-149 -149l148 -148l-55 -56l-149 149l-149 -149l-55 55l149 149l-149 149z" glyph-name="multiply"/>
<glyph unicode="Ø" horiz-adv-x="840" d="M680 672l-29 -43q60 -50 94.5 -123t34.5 -156q0 -151 -104 -256.5t-256 -105.5q-95 0 -173 43l-33 -49l-67 42l35 52q-58 50 -90 121t-32 153q0 151 104 256.5t256 105.5q87 0 165 -40l28 42zM678 350q0 121 -79 202l-302 -447q56 -31 123 -31q111 0 184.5 79.5 t73.5 196.5zM162 350q0 -118 73 -196l300 445q-54 27 -115 27q-111 0 -184.5 -79.5t-73.5 -196.5z" glyph-name="Oslash"/>
<glyph unicode="Ù" horiz-adv-x="722" d="M632 700v-371q0 -169 -66 -255t-207 -86q-269 0 -269 341v371h96v-396q0 -114 46 -172t129 -58t129 58t46 172v396h96zM386 740l-175 126l52 66l165 -138z" glyph-name="Ugrave"/>
<glyph unicode="Ú" horiz-adv-x="722" d="M632 700v-371q0 -169 -66 -255t-207 -86q-269 0 -269 341v371h96v-396q0 -114 46 -172t129 -58t129 58t46 172v396h96zM515 866l-175 -126l-42 54l165 138z" glyph-name="Uacute"/>
<glyph unicode="Û" horiz-adv-x="722" d="M632 700v-371q0 -169 -66 -255t-207 -86q-269 0 -269 341v371h96v-396q0 -114 46 -172t129 -58t129 58t46 172v396h96zM323 922h95l107 -134l-54 -42l-102 116l-101 -116l-55 42z" glyph-name="Ucircumflex"/>
<glyph unicode="Ü" horiz-adv-x="722" d="M632 700v-371q0 -169 -66 -255t-207 -86q-269 0 -269 341v371h96v-396q0 -114 46 -172t129 -58t129 58t46 172v396h96zM277 764h-102v111h102v-111zM547 764h-102v111h102v-111z" glyph-name="Udieresis"/>
<glyph unicode="Ý" horiz-adv-x="555" d="M324 0h-96v304l-223 396h119l156 -294h3l155 294h112l-226 -401v-299zM422 866l-175 -126l-42 54l165 138z" glyph-name="Yacute"/>
<glyph unicode="Þ" horiz-adv-x="601" d="M95 701h96v-137h113q45 0 87 -11.5t78.5 -35t59 -65.5t22.5 -97q0 -56 -22 -98t-59 -66t-79 -35.5t-87 -11.5h-113v-144h-96v701zM449 352q0 58 -41 92t-109 34h-108v-248h88q170 0 170 122z" glyph-name="Thorn"/>
<glyph unicode="ß" horiz-adv-x="625" d="M171 0h-91v541q0 99 63.5 160t157.5 61t155 -55.5t61 -147.5q0 -41 -21 -77t-55 -59q65 -21 102 -73t37 -131q0 -105 -68 -168t-170 -63q-58 0 -106 26l34 78q33 -20 75 -20q71 0 106.5 39.5t35.5 107.5q0 76 -47.5 115t-122.5 39q-30 0 -44 -2v72h20q50 0 91.5 32 t41.5 82q0 55 -33.5 88t-89.5 33q-65 0 -98.5 -41.5t-33.5 -115.5v-521z" glyph-name="germandbls"/>
<glyph unicode="à" horiz-adv-x="546" d="M468 0h-87v53q-58 -65 -150 -65q-75 0 -126 38t-51 114q0 60 34 99t81.5 53t107.5 14q47 0 100 -11v18q0 120 -118 120q-79 0 -159 -44l-27 76q98 47 197 47q105 0 151.5 -53.5t46.5 -154.5v-304zM377 124v103q-46 10 -90 10q-144 0 -144 -90q0 -43 27.5 -63t71.5 -20 q64 0 135 60zM270 566l-134 160l66 51l123 -169z" glyph-name="agrave"/>
<glyph unicode="á" horiz-adv-x="546" d="M468 0h-87v53q-58 -65 -150 -65q-75 0 -126 38t-51 114q0 60 34 99t81.5 53t107.5 14q47 0 100 -11v18q0 120 -118 120q-79 0 -159 -44l-27 76q98 47 197 47q105 0 151.5 -53.5t46.5 -154.5v-304zM377 124v103q-46 10 -90 10q-144 0 -144 -90q0 -43 27.5 -63t71.5 -20 q64 0 135 60zM395 726l-134 -160l-55 42l123 169z" glyph-name="aacute"/>
<glyph unicode="â" horiz-adv-x="546" d="M468 0h-87v53q-58 -65 -150 -65q-75 0 -126 38t-51 114q0 60 34 99t81.5 53t107.5 14q47 0 100 -11v18q0 120 -118 120q-79 0 -159 -44l-27 76q98 47 197 47q105 0 151.5 -53.5t46.5 -154.5v-304zM377 124v103q-46 10 -90 10q-144 0 -144 -90q0 -43 27.5 -63t71.5 -20 q64 0 135 60zM407 602l-53 -36l-93 129l-93 -129l-55 36l104 157h88z" glyph-name="acircumflex"/>
<glyph unicode="ã" horiz-adv-x="546" d="M468 0h-87v53q-58 -65 -150 -65q-75 0 -126 38t-51 114q0 60 34 99t81.5 53t107.5 14q47 0 100 -11v18q0 120 -118 120q-79 0 -159 -44l-27 76q98 47 197 47q105 0 151.5 -53.5t46.5 -154.5v-304zM377 124v103q-46 10 -90 10q-144 0 -144 -90q0 -43 27.5 -63t71.5 -20 q64 0 135 60zM434 700q2 -12 2 -23q0 -43 -27.5 -69t-70.5 -26q-31 0 -58.5 16t-49.5 32t-40 16q-31 0 -33 -30q0 -7 1 -10l-65 -7q-2 12 -2 23q0 43 27.5 69t70.5 26q38 0 83.5 -32t64.5 -32q31 0 33 30q0 7 -1 10z" glyph-name="atilde"/>
<glyph unicode="ä" horiz-adv-x="546" d="M468 0h-87v53q-58 -65 -150 -65q-75 0 -126 38t-51 114q0 60 34 99t81.5 53t107.5 14q47 0 100 -11v18q0 120 -118 120q-79 0 -159 -44l-27 76q98 47 197 47q105 0 151.5 -53.5t46.5 -154.5v-304zM377 124v103q-46 10 -90 10q-144 0 -144 -90q0 -43 27.5 -63t71.5 -20 q64 0 135 60zM207 598h-93v102h93v-102zM410 598h-93v102h93v-102z" glyph-name="adieresis"/>
<glyph unicode="å" horiz-adv-x="546" d="M468 0h-87v53q-58 -65 -150 -65q-75 0 -126 38t-51 114q0 60 34 99t81.5 53t107.5 14q47 0 100 -11v18q0 120 -118 120q-79 0 -159 -44l-27 76q98 47 197 47q105 0 151.5 -53.5t46.5 -154.5v-304zM377 124v103q-46 10 -90 10q-144 0 -144 -90q0 -43 27.5 -63t71.5 -20 q64 0 135 60zM172 658q0 38 27.5 65.5t65.5 27.5t65.5 -27.5t27.5 -65.5t-27.5 -65.5t-65.5 -27.5t-65.5 27.5t-27.5 65.5zM221 658q0 -18 13 -31t31 -13t31 13t13 31t-13 31t-31 13t-31 -13t-13 -31z" glyph-name="aring"/>
<glyph unicode="æ" horiz-adv-x="891" d="M755 300q-3 55 -40.5 94.5t-92.5 39.5q-58 0 -97.5 -37.5t-53.5 -96.5h284zM392 140q-16 44 -19 88q-45 9 -86 9q-144 0 -144 -90q0 -43 27.5 -63t71.5 -20q81 0 150 76zM774 147l66 -42q-73 -117 -219 -117q-125 0 -193 86q-73 -86 -197 -86q-75 0 -126 38t-51 114 q0 60 34 99t81.5 53t107.5 14q47 0 100 -11v18q0 120 -118 120q-79 0 -159 -44l-27 76q98 47 197 47q128 0 171 -84q71 84 180 84q99 0 163.5 -66t64.5 -167q0 -26 -4 -52h-381q5 -68 48.5 -114.5t112.5 -46.5q106 0 149 81z" glyph-name="ae"/>
<glyph unicode="ç" horiz-adv-x="475" d="M406 107l45 -70q-60 -49 -153 -49q-11 0 -16 1l-20 -54l1 -1q22 16 48 16q35 0 61 -26.5t26 -66.5q0 -41 -31.5 -71.5t-77.5 -30.5q-70 0 -103 59l57 28q12 -32 46 -32q19 0 31 13t12 31q0 20 -12.5 33.5t-32.5 13.5q-29 0 -39 -24l-61 32l37 89q-82 22 -132 89.5 t-50 162.5q0 110 76 186t185 76q77 0 141 -43l-43 -75q-45 34 -102 34q-68 0 -116 -52t-48 -126q0 -79 48.5 -128.5t116.5 -49.5q59 0 106 35z" glyph-name="ccedilla"/>
<glyph unicode="è" horiz-adv-x="560" d="M514 227h-381q5 -68 48.5 -114.5t112.5 -46.5q106 0 149 81l66 -42q-73 -117 -219 -117q-116 0 -182 74t-66 188q0 111 71.5 186.5t176.5 75.5q99 0 163.5 -66t64.5 -167q0 -26 -4 -52zM291 434q-58 0 -97.5 -37.5t-53.5 -96.5h284q-3 55 -40.5 94.5t-92.5 39.5zM287 566 l-134 160l66 51l123 -169z" glyph-name="egrave"/>
<glyph unicode="é" horiz-adv-x="560" d="M514 227h-381q5 -68 48.5 -114.5t112.5 -46.5q106 0 149 81l66 -42q-73 -117 -219 -117q-116 0 -182 74t-66 188q0 111 71.5 186.5t176.5 75.5q99 0 163.5 -66t64.5 -167q0 -26 -4 -52zM291 434q-58 0 -97.5 -37.5t-53.5 -96.5h284q-3 55 -40.5 94.5t-92.5 39.5zM427 726 l-134 -160l-55 42l123 169z" glyph-name="eacute"/>
<glyph unicode="ê" horiz-adv-x="560" d="M514 227h-381q5 -68 48.5 -114.5t112.5 -46.5q106 0 149 81l66 -42q-73 -117 -219 -117q-116 0 -182 74t-66 188q0 111 71.5 186.5t176.5 75.5q99 0 163.5 -66t64.5 -167q0 -26 -4 -52zM291 434q-58 0 -97.5 -37.5t-53.5 -96.5h284q-3 55 -40.5 94.5t-92.5 39.5zM436 602 l-53 -36l-93 129l-93 -129l-55 36l104 157h88z" glyph-name="ecircumflex"/>
<glyph unicode="ë" horiz-adv-x="560" d="M514 227h-381q5 -68 48.5 -114.5t112.5 -46.5q106 0 149 81l66 -42q-73 -117 -219 -117q-116 0 -182 74t-66 188q0 111 71.5 186.5t176.5 75.5q99 0 163.5 -66t64.5 -167q0 -26 -4 -52zM291 434q-58 0 -97.5 -37.5t-53.5 -96.5h284q-3 55 -40.5 94.5t-92.5 39.5zM235 598 h-93v102h93v-102zM438 598h-93v102h93v-102z" glyph-name="edieresis"/>
<glyph unicode="ì" horiz-adv-x="259" d="M175 0h-91v500h91v-500zM124 566l-134 160l66 51l123 -169z" glyph-name="igrave"/>
<glyph unicode="í" horiz-adv-x="259" d="M175 0h-91v500h91v-500zM267 726l-134 -160l-55 42l123 169z" glyph-name="iacute"/>
<glyph unicode="î" horiz-adv-x="259" d="M175 0h-91v500h91v-500zM276 602l-53 -36l-93 129l-93 -129l-55 36l104 157h88z" glyph-name="icircumflex"/>
<glyph unicode="ï" horiz-adv-x="259" d="M75 598h-93v102h93v-102zM278 598h-93v102h93v-102zM175 0h-91v500h91v-500z" glyph-name="idieresis"/>
<glyph unicode="ð" horiz-adv-x="574" d="M328 767l-55 -95q259 -168 259 -440q0 -102 -68.5 -173t-184.5 -71q-106 0 -171.5 73.5t-65.5 174.5q0 94 64.5 162.5t154.5 68.5q69 0 127 -34q-53 92 -159 164l-57 -98l-63 38l57 98q-36 20 -99 47l34 79q63 -28 108 -52l55 95zM423 352q-59 32 -131 32 q-68 0 -112.5 -39.5t-44.5 -110.5q0 -68 42.5 -115t109.5 -47q77 0 114 48.5t37 124.5q0 52 -15 107z" glyph-name="eth"/>
<glyph unicode="ñ" horiz-adv-x="606" d="M84 500h91v-82q59 94 163 94q98 0 145 -63q45 -61 45 -189v-260h-91v250q0 99 -26 138q-27 40 -87 40q-42 0 -81.5 -26.5t-67.5 -69.5v-332h-91v500zM492 700q2 -12 2 -23q0 -43 -27.5 -69t-70.5 -26q-31 0 -58.5 16t-49.5 32t-40 16q-31 0 -33 -30q0 -7 1 -10l-65 -7 q-2 12 -2 23q0 43 27.5 69t70.5 26q38 0 83.5 -32t64.5 -32q31 0 33 30q0 7 -1 10z" glyph-name="ntilde"/>
<glyph unicode="ò" horiz-adv-x="594" d="M297 512q109 0 182 -76t73 -186t-73 -186t-182 -76t-182 76t-73 186t73 186t182 76zM459 250q0 74 -46 126t-116 52t-116 -52t-46 -126t46 -126t116 -52t116 52t46 126zM287 566l-134 160l66 51l123 -169z" glyph-name="ograve"/>
<glyph unicode="ó" horiz-adv-x="594" d="M297 512q109 0 182 -76t73 -186t-73 -186t-182 -76t-182 76t-73 186t73 186t182 76zM459 250q0 74 -46 126t-116 52t-116 -52t-46 -126t46 -126t116 -52t116 52t46 126zM438 726l-134 -160l-55 42l123 169z" glyph-name="oacute"/>
<glyph unicode="ô" horiz-adv-x="594" d="M297 512q109 0 182 -76t73 -186t-73 -186t-182 -76t-182 76t-73 186t73 186t182 76zM459 250q0 74 -46 126t-116 52t-116 -52t-46 -126t46 -126t116 -52t116 52t46 126zM443 602l-53 -36l-93 129l-93 -129l-55 36l104 157h88z" glyph-name="ocircumflex"/>
<glyph unicode="õ" horiz-adv-x="594" d="M297 512q109 0 182 -76t73 -186t-73 -186t-182 -76t-182 76t-73 186t73 186t182 76zM459 250q0 74 -46 126t-116 52t-116 -52t-46 -126t46 -126t116 -52t116 52t46 126zM474 700q2 -12 2 -23q0 -43 -27.5 -69t-70.5 -26q-31 0 -58.5 16t-49.5 32t-40 16q-31 0 -33 -30 q0 -7 1 -10l-65 -7q-2 12 -2 23q0 43 27.5 69t70.5 26q38 0 83.5 -32t64.5 -32q31 0 33 30q0 7 -1 10z" glyph-name="otilde"/>
<glyph unicode="ö" horiz-adv-x="594" d="M297 512q109 0 182 -76t73 -186t-73 -186t-182 -76t-182 76t-73 186t73 186t182 76zM459 250q0 74 -46 126t-116 52t-116 -52t-46 -126t46 -126t116 -52t116 52t46 126zM242 598h-93v102h93v-102zM445 598h-93v102h93v-102z" glyph-name="odieresis"/>
<glyph unicode="÷" d="M24 272v78h501v-78h-501zM327 61h-105v116h105v-116zM327 445h-105v116h105v-116z" glyph-name="divide"/>
<glyph unicode="ø" horiz-adv-x="594" d="M492 486l-26 -38q86 -78 86 -198q0 -110 -73 -186t-182 -76q-65 0 -122 30l-26 -39l-54 35l28 42q-81 76 -81 194q0 110 73 186t182 76q63 0 116 -28l25 37zM459 250q0 73 -44 123l-191 -283q32 -18 73 -18q70 0 116 52t46 126zM135 250q0 -69 39 -119l190 281 q-32 16 -67 16q-70 0 -116 -52t-46 -126z" glyph-name="oslash"/>
<glyph unicode="ù" horiz-adv-x="606" d="M431 0v82q-59 -94 -163 -94q-98 0 -145 63q-45 61 -45 189v260h91v-250q0 -99 26 -138q27 -40 87 -40q42 0 81.5 26.5t67.5 69.5v332h91v-500h-91zM308 566l-134 160l66 51l123 -169z" glyph-name="ugrave"/>
<glyph unicode="ú" horiz-adv-x="606" d="M431 0v82q-59 -94 -163 -94q-98 0 -145 63q-45 61 -45 189v260h91v-250q0 -99 26 -138q27 -40 87 -40q42 0 81.5 26.5t67.5 69.5v332h91v-500h-91zM441 726l-134 -160l-55 42l123 169z" glyph-name="uacute"/>
<glyph unicode="û" horiz-adv-x="606" d="M431 0v82q-59 -94 -163 -94q-98 0 -145 63q-45 61 -45 189v260h91v-250q0 -99 26 -138q27 -40 87 -40q42 0 81.5 26.5t67.5 69.5v332h91v-500h-91zM454 602l-53 -36l-93 129l-93 -129l-55 36l104 157h88z" glyph-name="ucircumflex"/>
<glyph unicode="ü" horiz-adv-x="606" d="M431 0v82q-59 -94 -163 -94q-98 0 -145 63q-45 61 -45 189v260h91v-250q0 -99 26 -138q27 -40 87 -40q42 0 81.5 26.5t67.5 69.5v332h91v-500h-91zM246 598h-93v102h93v-102zM449 598h-93v102h93v-102z" glyph-name="udieresis"/>
<glyph unicode="ý" horiz-adv-x="477" d="M6 500h101l130 -379h2l133 379h99l-281 -725l-80 31l79 209zM365 726l-134 -160l-55 42l123 169z" glyph-name="yacute"/>
<glyph unicode="þ" horiz-adv-x="626" d="M84 750h91v-317q26 38 69 58.5t90 20.5q107 0 178.5 -76t71.5 -187q0 -104 -71 -182.5t-181 -78.5q-93 0 -157 66v-304h-91v1000zM175 333v-185q25 -36 65 -56t80 -20q81 0 126 54t45 125q0 73 -47 125t-122 52q-44 0 -86.5 -25.5t-60.5 -69.5z" glyph-name="thorn"/>
</font>
</defs>
</svg>
